<?xml version="1.0" encoding="utf-8"?>
<!-- Generator: Adobe Illustrator 27.0.0, SVG Export Plug-In . SVG Version: 6.00 Build 0)  -->
<svg version="1.1" id="_圖層_2" xmlns="http://www.w3.org/2000/svg" xmlns:xlink="http://www.w3.org/1999/xlink" x="0px" y="0px"
	 viewBox="0 0 1196.1 185" style="enable-background:new 0 0 1196.1 185;" xml:space="preserve">
<style type="text/css">
	.st0{fill-rule:evenodd;clip-rule:evenodd;fill:#FFFFFF;}
	.st1{fill:url(#SVGID_1_);}
</style>
<g>
	<g>
		<path class="st0" d="M641.8,37.7c-1-1.7-2.8-2.8-4.8-2.8h-4.6c-1.2,0-2.4,0.7-2.9,1.8L589,117.1c-0.2,0.4-0.6,0.8-1,1
			c-1.1,0.6-2.5,0.1-3.1-1l-40.5-80.5c-0.5-1.1-1.7-1.8-2.9-1.8h-4.7c-2,0-3.8,1.1-4.8,2.8l-5.2,8.9c-0.9,1.5-0.9,3.4-0.1,5
			l48.2,94.7c0.8,1.5,2.4,2.5,4.1,2.5h15.9c1.7,0,3.3-0.9,4.1-2.5l48.2-94.7h0.1c0.8-1.6,0.8-3.5-0.1-5L641.8,37.7z"/>
		<path class="st0" d="M409.5,46.6l-5.1-9c-1-1.7-2.8-2.7-4.8-2.7h-4.7c-1.2,0-2.4,0.7-2.9,1.8l-40.5,80.5c-0.2,0.4-0.6,0.8-1,1
			c-1.1,0.6-2.5,0.1-3.1-1l-40.5-80.5c-0.5-1.1-1.7-1.8-2.9-1.8h-4.7c-2,0-3.8,1.1-4.8,2.8l-5.1,8.9c-0.9,1.5-0.9,3.4-0.1,5
			l48.2,94.7c0.8,1.5,2.4,2.5,4.1,2.5h15.9c1.7,0,3.3-1,4.1-2.5l48.3-94.7h0C410.4,50,410.4,48.1,409.5,46.6z"/>
		<path class="st0" d="M478.3,36.2c-0.9-0.9-2.1-1.3-3.4-1.3h-7.4c-2.1,0-4,1.1-5,2.8l-5.3,8.9c-0.5,0.8-0.7,1.8-0.7,2.7v94.9
			c0,2.6,2.1,4.6,4.8,4.6H475c2.6,0,4.7-2.1,4.7-4.6V39.6c0-1.2-0.5-2.4-1.4-3.3L478.3,36.2z"/>
		<path class="st0" d="M778.9,37.6c-1-1.7-2.8-2.8-4.7-2.8h-68.6c-2,0-3.8,1.1-4.8,2.8l-4.7,8.3c-0.7,1.2-1.1,2.6-1.1,3.9v83.9
			c0,1.4,0.4,2.8,1.1,4l4.8,8.3c1,1.7,2.8,2.8,4.8,2.8h68.6c1.9,0,3.7-1,4.7-2.7l4.8-8.3c0.7-1.2,1.1-2.6,1.1-3.9v-2.1c0,0,0,0,0,0
			c0-1.7-1.4-3.1-3.1-3.1h-62.5c0,0,0,0,0,0c-1.3,0-2.3-1-2.3-2.3v-22.4c0-1.3,1-2.3,2.3-2.3h42.4c2.1,0,3.7-1.7,3.7-3.8V85.3
			c0-2.1-1.7-3.7-3.7-3.8h-42.4c0,0,0,0,0,0c-1.3,0-2.3-1-2.3-2.3V57.4c0-1.3,1-2.3,2.3-2.3h62.5c1.7,0,3.1-1.4,3.1-3.1v-2.1
			c0-1.4-0.4-2.7-1.1-3.9L778.9,37.6z"/>
		<path class="st0" d="M1130.5,55.1h62.5c0,0,0,0,0.1,0c1.7,0,3.1-1.4,3.1-3.2v-2.1c0-1.4-0.4-2.7-1-3.9l-4.8-8.3
			c-1-1.7-2.8-2.7-4.7-2.7h-68.6c-2,0-3.8,1.1-4.8,2.8l-4.8,8.3c-0.7,1.2-1.1,2.6-1.1,3.9v83.9c0,1.4,0.4,2.8,1.1,4l4.8,8.3
			c1,1.7,2.8,2.8,4.8,2.8h68.6c1.9,0,3.7-1,4.7-2.7l4.8-8.4c0.7-1.2,1-2.6,1-3.9v-2.1c0-1.7-1.4-3.1-3.1-3.1h-62.5c0,0,0,0,0,0
			c-1.3,0-2.3-1-2.3-2.3v-22.4c0-1.3,1-2.3,2.3-2.3h42.4c2.1,0,3.8-1.7,3.8-3.8V85.3c0-2.1-1.7-3.7-3.7-3.8h-42.4c0,0,0,0,0,0
			c-1.3,0-2.3-1-2.3-2.3V57.4C1128.2,56.1,1129.2,55.1,1130.5,55.1z"/>
		<path class="st0" d="M908.4,99.1c9.8-4.6,17.4-14.7,17.4-31.3c0-12.5-4.9-20-9-24.1c-5.9-5.6-13.8-8.8-22-8.9h-53.9
			c-2,0-3.8,1-4.9,2.7l-5.1,8.9c-0.5,0.8-0.7,1.7-0.7,2.6v95c0,2.6,2.1,4.6,4.6,4.6h13.3c2.5,0,4.6-2.1,4.6-4.6v-42.3h32l22.7,45.1
			c0.5,1.1,1.7,1.8,2.9,1.8h4.7c2,0,3.8-1,4.8-2.8l5.2-8.9c0.9-1.5,0.9-3.4,0.1-5L908.4,99.1z M894.8,81.6h-42.1V55h42.1
			c7.3,0,10.6,4.9,10.6,12.7C905.5,77,902.1,81.6,894.8,81.6z"/>
		<path class="st0" d="M1029.8,82.2h-27.5c-8.7,0-10.1-7.4-10.1-13V69c0-5.6,1.5-13,10.1-13h50.2c1.7,0,3.1-1.3,3.1-3c0,0,0,0,0,0
			v-2.1c0-1.4-0.4-2.8-1-4l-4.9-8.3c-1-1.7-2.8-2.7-4.7-2.7h-42.7c-19.4,0-30.2,15.7-30.2,33.2v0.2c0,18.6,12,33.2,30.2,33.2h27.5
			c8.5,0,10.1,7.4,10.1,13v0.2c0,5.6-1.3,13-10.1,13h-50.2c-1.7-0.1-3.1,1.2-3.1,2.9c0,0,0,0.1,0,0.1v2.1c0,1.4,0.4,2.8,1,4l4.9,8.4
			c1,1.7,2.8,2.7,4.7,2.7h42.7c18.2,0,30.2-14.6,30.2-33.2v-0.2C1060,97.9,1049.2,82.2,1029.8,82.2z"/>
	</g>
	<linearGradient id="SVGID_1_" gradientUnits="userSpaceOnUse" x1="2.2353" y1="86.9248" x2="231.1784" y2="98.9232">
		<stop  offset="5.000000e-02" style="stop-color:#73EAFF"/>
		<stop  offset="0.25" style="stop-color:#01B0E0"/>
		<stop  offset="0.6" style="stop-color:#415FF8"/>
		<stop  offset="1" style="stop-color:#C761D6"/>
	</linearGradient>
	<path class="st1" d="M228.6,120.2C220,78,198.7,40.5,169,12.4c-4.2-3.5-9.7-6.3-15-8.2c-4.9-2.2-20.8-3.9-39.7-3.9
		c-18.9,0-34.7,1.6-39.7,3.9c-5.4,2-10.6,5.2-15,9.5C30.3,41.9,9.4,79.3,0.9,121.5c-4.6,23.2,8.7,46.2,30.2,53.3
		c17.1,5.7,34.8,8.2,54.1,9.3c8.7,0.7,18.2,0.9,28.3,0.9c20.1-0.4,36.8-1.4,50.3-3.8c11.7-1.6,23-4.1,33.9-7.7
		C219.8,166.4,233.3,143.4,228.6,120.2z M33.8,166c-17.5-5.8-28-24.1-24.3-42.6c7.2-36.3,24-69.1,48.7-95.6
		c0.1-0.1,4.2-5.3,10.1-9.8c0.1-0.1,0.2-0.2,0.3-0.3c5.5-4.2,12.3-7.8,18.8-6.3c0,0-5.8,2.9-14,11.3C48.8,49.6,31.2,83.3,23.6,121
		c-3.8,18.9,4.4,37.7,19.4,47.8C39.9,167.9,36.8,167,33.8,166z M40,150.7c-5.5-7.7-7.9-17.5-5.9-27.4c6.9-34,22-64.5,44.6-90L79,33
		c0,0,18.6-21.9,28.6-18.2c0,0-9.7,6-21.4,21.7L86,36.9c-18.3,24-31.5,52.4-37.8,83.3c-2.7,13.4,0.7,26.7,8.3,37
		c1.7,2.1,7,8.2,11.6,10.9C68,168.1,50.2,165.9,40,150.7z M153.1,162.2c-2.3,1.5-8.8,4.8-11.2,5.4c-7.4,2.6-10.5,3.2-18.3,3.9
		c-4.3,0.4-11.7,0.5-15.4,0c-11.6-1.6-14-2.2-25.3-6.4c-7.6-2.9-14.2-8.4-18.4-16.3c-4.3-8-5.7-17.2-4.1-26.1
		c0.2-0.9,0.4-1.8,0.6-2.8c0.4-2.4,0.9-4.9,1.5-7c3.6-15.5,9.2-30.5,16.7-44.6c7.4-13.9,16.5-26.5,27-37.6c1.8-2,3.3-3.7,5.4-5
		c2.4-1.8,3.9-0.7,5.1-0.1c1.9,0.9,3.7,2.5,5.5,4.2c7.8,8,15,17,21.3,26.9c6.2,9.7,11.5,20.2,16,31.3c4.3,10.8,7.7,22.7,10.1,35.3
		c0,0,0.1,1,0.1,1c1.2,8.1,0,16.3-3.6,23.6C163.1,153.8,158.5,158.9,153.1,162.2z M189.5,145.5c-8.9,18.6-28,21.5-28,21.5
		c1.2-0.8,2.5-1.8,3.7-3c10.7-10.7,16.1-26.5,12.9-42.5c-6.4-32.2-19.9-61.3-39-85.9l-0.3-0.4c-11.2-14.8-17.8-19-17.8-19
		c11.1-2.9,27.8,18.6,27.8,18.6c21.8,25.1,36.7,55.3,43.4,88.5c1.4,6.8,0.7,13.5-1.7,19.6c-0.2,0.5-0.4,0.9-0.6,1.4
		C189.8,144.7,189.7,145.1,189.5,145.5z M194.2,161.3c-1.1,0.4-2.2,0.7-3.3,1c10.1-10.6,15-25.9,11.9-41.4
		c-8.4-41.6-29.1-78.5-57.9-106.5l-3.6-3.1c6.8,1.2,12.9,5,17.6,8.7c0.1,0,0.1,0.1,0.2,0.1c4.8,3.9,8,7.7,8.7,8.5
		c24.8,26,41.7,58.3,48.9,94C220.1,139.5,210.4,156.1,194.2,161.3z"/>
</g>
</svg>
